<?xml version="1.0" encoding="UTF-8" standalone="no"?>
<!-- Created with Inkscape (http://www.inkscape.org/) -->

<svg
   width="48"
   height="48"
   viewBox="0 0 12.7 12.7"
   version="1.1"
   id="svg5"
   inkscape:version="1.2.2 (b0a8486541, 2022-12-01)"
   sodipodi:docname="logo.svg"
   inkscape:export-filename="../public/logo512.png"
   inkscape:export-xdpi="1024"
   inkscape:export-ydpi="1024"
   xmlns:inkscape="http://www.inkscape.org/namespaces/inkscape"
   xmlns:sodipodi="http://sodipodi.sourceforge.net/DTD/sodipodi-0.dtd"
   xmlns="http://www.w3.org/2000/svg"
   xmlns:svg="http://www.w3.org/2000/svg">
  <sodipodi:namedview
     id="namedview7"
     pagecolor="#ffffff"
     bordercolor="#666666"
     borderopacity="1.0"
     inkscape:showpageshadow="2"
     inkscape:pageopacity="0.0"
     inkscape:pagecheckerboard="0"
     inkscape:deskcolor="#d1d1d1"
     inkscape:document-units="px"
     showgrid="false"
     inkscape:zoom="3.659624"
     inkscape:cx="-185.94806"
     inkscape:cy="79.789618"
     inkscape:window-width="2880"
     inkscape:window-height="1551"
     inkscape:window-x="0"
     inkscape:window-y="0"
     inkscape:window-maximized="1"
     inkscape:current-layer="g3444"
     showguides="false" />
  <defs
     id="defs2" />
  <g
     inkscape:label="Layer 1"
     inkscape:groupmode="layer"
     id="layer1">
    <g
       id="g3444"
       transform="matrix(1.2901421,0,0,1.4052635,-1.837439,-2.578513)">
      <g
         id="g2027"
         transform="matrix(0.93682748,0.32113627,-0.38100423,0.93682748,3.2707172,0.47951762)">
        <g
           id="g446"
           style="fill:#000000;fill-opacity:1;stroke:#f74599;stroke-width:0.593044;stroke-dasharray:none;stroke-opacity:1"
           transform="matrix(0.90750526,0,0,0.90750526,-0.99394921,-0.87055627)">
          <path
             style="fill:#000000;fill-opacity:1;stroke:#f74599;stroke-width:0.593044;stroke-linecap:butt;stroke-linejoin:miter;stroke-dasharray:none;stroke-opacity:1"
             d="M 2.9901017,9.4521734 9.7232509,9.4366381 V 4.1371851 L 8.8494276,3.2633619 H 3.8881111 L 2.9769697,4.1745035 Z"
             id="path236"
             sodipodi:nodetypes="ccccccc" />
          <path
             style="fill:#000000;fill-opacity:1;stroke:#f74599;stroke-width:0.593044;stroke-linecap:butt;stroke-linejoin:miter;stroke-dasharray:none;stroke-opacity:1"
             d="M 3.0173578,5.963463 H 9.7577835"
             id="path442" />
        </g>
        <path
           style="fill:none;stroke:#f74599;stroke-width:0.179397px;stroke-linecap:butt;stroke-linejoin:miter;stroke-opacity:1"
           d="M 1.7195838,6.1762274 H 7.8299522"
           id="path1744" />
        <path
           style="fill:none;stroke:#f74599;stroke-width:0.179397px;stroke-linecap:butt;stroke-linejoin:miter;stroke-opacity:1"
           d="m 2.3421858,4.5413178 v 3.1519249 h 0.00297"
           id="path1746" />
        <path
           style="fill:none;stroke:#f74599;stroke-width:0.179397px;stroke-linecap:butt;stroke-linejoin:miter;stroke-opacity:1"
           d="m 2.7803074,4.4657175 v 3.1519249 h 0.00297"
           id="path1746-3" />
        <path
           style="fill:none;stroke:#f74599;stroke-width:0.179397px;stroke-linecap:butt;stroke-linejoin:miter;stroke-opacity:1"
           d="m 3.218429,4.6451142 v 3.1519249 h 0.00297"
           id="path1746-6" />
        <path
           style="fill:none;stroke:#f74599;stroke-width:0.179397px;stroke-linecap:butt;stroke-linejoin:miter;stroke-opacity:1"
           d="m 3.6565505,4.569514 v 3.1519248 h 0.00297"
           id="path1746-3-7" />
        <path
           style="fill:none;stroke:#f74599;stroke-width:0.179397px;stroke-linecap:butt;stroke-linejoin:miter;stroke-opacity:1"
           d="m 4.094672,4.4516193 v 3.1519254 h 0.00298"
           id="path1746-5" />
        <path
           style="fill:none;stroke:#f74599;stroke-width:0.179397px;stroke-linecap:butt;stroke-linejoin:miter;stroke-opacity:1"
           d="m 4.5327935,4.3760191 v 3.1519253 h 0.00298"
           id="path1746-3-3" />
        <path
           style="fill:none;stroke:#f74599;stroke-width:0.179397px;stroke-linecap:butt;stroke-linejoin:miter;stroke-opacity:1"
           d="m 4.970915,4.5554157 v 3.1519254 h 0.00298"
           id="path1746-6-5" />
        <path
           style="fill:none;stroke:#f74599;stroke-width:0.179397px;stroke-linecap:butt;stroke-linejoin:miter;stroke-opacity:1"
           d="m 5.4090365,4.4798155 v 3.1519253 h 0.00298"
           id="path1746-3-7-6" />
        <path
           style="fill:none;stroke:#f74599;stroke-width:0.179397px;stroke-linecap:butt;stroke-linejoin:miter;stroke-opacity:1"
           d="m 5.847158,4.6592121 v 3.1519247 h 0.00298"
           id="path1746-6-2" />
        <path
           style="fill:none;stroke:#f74599;stroke-width:0.179397px;stroke-linecap:butt;stroke-linejoin:miter;stroke-opacity:1"
           d="m 6.2852802,4.5836119 v 3.1519246 h 0.00298"
           id="path1746-3-7-9" />
        <path
           style="fill:none;stroke:#f74599;stroke-width:0.179397px;stroke-linecap:butt;stroke-linejoin:miter;stroke-opacity:1"
           d="m 6.7234017,4.4657172 v 3.1519252 h 0.00298"
           id="path1746-5-1" />
        <path
           style="fill:none;stroke:#f74599;stroke-width:0.179397px;stroke-linecap:butt;stroke-linejoin:miter;stroke-opacity:1"
           d="m 7.1615232,4.390117 v 3.1519251 h 0.00298"
           id="path1746-3-3-2" />
      </g>
      <g
         id="g1984"
         transform="matrix(0.9867326,-0.14905359,0.17684096,0.9867326,8.8164424,-6.0071851)">
        <path
           id="path1628-3"
           style="fill:#ffffff;fill-opacity:1;fill-rule:nonzero;stroke:#000000;stroke-width:0.414574px;stroke-linecap:butt;stroke-linejoin:miter;stroke-opacity:1"
           d="m -2.3333266,8.905983 -1e-7,2.486005 1.49120172,1.369042 c 0,0 0.2029,1.010588 0,1.460303 -0.0685,0.151826 -0.21434102,0.285719 -2.32896772,0.285719 -2.1146267,0 -2.2604675,-0.133893 -2.3289674,-0.285718 -0.2029002,-0.449716 0,-1.460306 0,-1.460306 l 1.4912024,-1.36904 V 8.9059824"
           sodipodi:nodetypes="cccscsccc" />
        <path
           id="path1920-6"
           style="fill:#ffffff;fill-opacity:1;stroke:#000000;stroke-width:0.196501px;stroke-linecap:butt;stroke-linejoin:miter;stroke-opacity:1"
           d="m -4.0091811,9.0050303 h -0.8103623 c 0,0 -0.5158714,-0.7484293 0,-0.8242186 0.5158714,-0.075789 2.593422,-0.017446 3.2969017,0 0.70347967,0.017446 0,0.8242186 0,0.8242186 H -2.333004"
           sodipodi:nodetypes="cczzcc" />
        <path
           style="fill:#5c45f7;fill-opacity:1;stroke:none;stroke-width:0.196501px;stroke-linecap:butt;stroke-linejoin:miter;stroke-opacity:1"
           d="m -5.2821969,14.052484 2.3767964,0.242718 1.7949686,-0.204777 v -1.196144 c 0,0 -0.5680753,-0.634757 -0.9695678,-0.660688 -0.2598698,-0.01678 -0.6667054,0.279332 -0.9272107,0.277604 -0.2474251,-0.0016 -0.432776,-0.539001 -0.6795907,-0.555031 -0.651564,-0.04232 -1.5528197,0.938647 -1.5528197,0.938647 z"
           id="path1950"
           sodipodi:nodetypes="ccccssscc" />
      </g>
      <path
         style="fill:none;fill-opacity:1;fill-rule:nonzero;stroke:#5c45f7;stroke-width:0.196501;stroke-linecap:round;stroke-dasharray:none;stroke-opacity:1"
         id="path3585"
         sodipodi:type="arc"
         sodipodi:cx="6.7419791"
         sodipodi:cy="3.2265704"
         sodipodi:rx="0.41016153"
         sodipodi:ry="0.37656045"
         sodipodi:start="0.017453293"
         sodipodi:end="6.2831853"
         sodipodi:open="true"
         sodipodi:arc-type="chord"
         d="M 7.1520782,3.2331423 A 0.41016153,0.37656045 0 0 1 6.7366103,3.6030986 0.41016153,0.37656045 0 0 1 6.3318332,3.2232843 0.41016153,0.37656045 0 0 1 6.7437688,2.8500135 0.41016153,0.37656045 0 0 1 7.1521406,3.2265704 Z" />
      <path
         style="fill:none;fill-opacity:1;fill-rule:nonzero;stroke:#5c45f7;stroke-width:0.196501;stroke-linecap:round;stroke-dasharray:none;stroke-opacity:1"
         id="path3585-7"
         sodipodi:type="arc"
         sodipodi:cx="7.5460877"
         sodipodi:cy="4.9551177"
         sodipodi:rx="0.30762115"
         sodipodi:ry="0.28242034"
         sodipodi:start="0.017453293"
         sodipodi:end="6.2831853"
         sodipodi:open="true"
         sodipodi:arc-type="chord"
         d="M 7.853662,4.9600466 A 0.30762115,0.28242034 0 0 1 7.5420611,5.2375138 0.30762115,0.28242034 0 0 1 7.2384783,4.9526532 0.30762115,0.28242034 0 0 1 7.54743,4.6727001 0.30762115,0.28242034 0 0 1 7.8537089,4.9551177 Z" />
      <path
         style="fill:none;fill-opacity:1;fill-rule:nonzero;stroke:#5c45f7;stroke-width:0.196501;stroke-linecap:round;stroke-dasharray:none;stroke-opacity:1"
         id="path3585-7-5"
         sodipodi:type="arc"
         sodipodi:cx="7.869092"
         sodipodi:cy="2.3799453"
         sodipodi:rx="0.30762115"
         sodipodi:ry="0.28242034"
         sodipodi:start="0.017453293"
         sodipodi:end="6.2831853"
         sodipodi:open="true"
         sodipodi:arc-type="chord"
         d="M 8.1766663,2.3848742 A 0.30762115,0.28242034 0 0 1 7.8650654,2.6623414 0.30762115,0.28242034 0 0 1 7.5614825,2.3774807 0.30762115,0.28242034 0 0 1 7.8704342,2.0975276 0.30762115,0.28242034 0 0 1 8.1767131,2.3799453 Z" />
    </g>
  </g>
</svg>
